#N canvas 701 122 559 534 12;
#X obj 53 460 *~;
#X obj 89 382 vsl 15 64 0 1 0 0 empty empty empty 0 -9 0 10 #fcfcfc
#000000 #000000 0 1;
#X obj 31 129 mtof;
#X obj 31 99 stripnote;
#X obj 91 129 / 127;
#X obj 141 129 sel 0;
#X obj 191 159 until;
#X obj 191 189 f;
#X obj 227 189 + 1;
#X msg 241 159 0;
#X obj 191 129 t f b;
#X obj 89 460 /;
#X obj 91 69 t f f;
#X obj 143 339 pack;
#X obj 211 339 pack;
#X obj 280 339 pack;
#X obj 150 279 f;
#X obj 186 279 + 2;
#X obj 168 309 *;
#X obj 143 249 t f b f;
#X msg 141 159 0;
#X obj 191 219 t f f f;
#X obj 323 249 until;
#X obj 323 279 f;
#X obj 359 279 + 1;
#X msg 373 249 0;
#X obj 323 219 t f b;
#X obj 323 189 f;
#X obj 314 99 s oscs-clones;
#X obj 341 159 r oscs-clones;
#X obj 107 399 r oscs-clones;
#X obj 190 99 f;
#X obj 208 69 r oscs-clones;
#X obj 323 309 t f f;
#X obj 273 309 t b f;
#X text 396 228 max amp to start;
#X obj 107 429 + 1;
#X obj 54 219 fundamental-osc;
#X obj 141 189 t f f;
#X obj 91 189 t f f;
#X obj 31 189 t b f f;
#X obj 314 39 loadbang;
#X obj 31 39 inlet;
#X text 32 19 note;
#X obj 91 39 inlet;
#X text 97 17 vel;
#X obj 53 490 outlet~;
#X msg 89 349 1;
#X obj 143 369 clone floating-osc 8;
#X msg 314 69 8;
#X obj 89 309 loadbang;
#X connect 0 0 46 0;
#X connect 1 0 11 0;
#X connect 2 0 40 0;
#X connect 3 0 2 0;
#X connect 3 1 4 0;
#X connect 4 0 39 0;
#X connect 5 0 20 0;
#X connect 6 0 7 0;
#X connect 7 0 21 0;
#X connect 8 0 7 1;
#X connect 9 0 7 1;
#X connect 10 0 6 0;
#X connect 10 1 9 0;
#X connect 11 0 0 1;
#X connect 12 0 3 1;
#X connect 12 1 5 0;
#X connect 13 0 48 0;
#X connect 14 0 48 1;
#X connect 15 0 48 2;
#X connect 16 0 18 0;
#X connect 17 0 18 1;
#X connect 18 0 13 1;
#X connect 19 0 13 0;
#X connect 19 1 16 0;
#X connect 19 2 17 0;
#X connect 20 0 38 0;
#X connect 21 0 19 0;
#X connect 21 1 14 0;
#X connect 21 2 8 0;
#X connect 22 0 23 0;
#X connect 23 0 33 0;
#X connect 24 0 23 1;
#X connect 25 0 23 1;
#X connect 26 0 22 0;
#X connect 26 1 25 0;
#X connect 27 0 26 0;
#X connect 29 0 27 1;
#X connect 30 0 36 0;
#X connect 31 0 10 0;
#X connect 32 0 31 1;
#X connect 33 0 15 0;
#X connect 33 1 24 0;
#X connect 34 0 27 0;
#X connect 34 1 15 1;
#X connect 36 0 11 1;
#X connect 37 0 0 0;
#X connect 38 0 37 2;
#X connect 38 1 34 0;
#X connect 39 0 37 1;
#X connect 39 1 14 1;
#X connect 40 0 31 0;
#X connect 40 1 37 0;
#X connect 40 2 16 1;
#X connect 41 0 49 0;
#X connect 42 0 3 0;
#X connect 44 0 12 0;
#X connect 47 0 1 0;
#X connect 48 0 0 0;
#X connect 49 0 28 0;
#X connect 50 0 47 0;
