#N canvas -7 0 656 535 12;
#X obj 130 107 notein;
#X obj 130 197 pack;
#X obj 291 197 pack;
#X obj 129 337 *~;
#X obj 165 259 vsl 15 64 0 1 0 0 empty empty empty 0 -9 0 10 #fcfcfc
#000000 #000000 0 1;
#X obj 334 257 s poly-voices;
#X obj 130 167 - 1;
#X obj 437 257 s oscs-max;
#X obj 522 257 s oscs-min;
#X obj 481 199 loadbang;
#X obj 129 368 dac~;
#X obj 130 137 poly 12;
#X obj 130 227 clone floating-synth-mono 12;
#X msg 334 227 12;
#X msg 437 227 1500;
#X msg 522 227 200;
#X obj 165 337 / 2;
#X connect 0 0 11 0;
#X connect 0 1 11 1;
#X connect 1 0 12 0;
#X connect 2 0 12 1;
#X connect 3 0 10 0;
#X connect 3 0 10 1;
#X connect 4 0 16 0;
#X connect 6 0 2 0;
#X connect 6 0 1 0;
#X connect 9 0 14 0;
#X connect 9 0 15 0;
#X connect 9 0 13 0;
#X connect 11 0 6 0;
#X connect 11 1 1 1;
#X connect 11 2 2 1;
#X connect 12 0 3 0;
#X connect 13 0 5 0;
#X connect 14 0 7 0;
#X connect 15 0 8 0;
#X connect 16 0 3 1;
