#N canvas 949 132 706 534 12;
#X obj 251 316 *~;
#X obj 269 286 vline~;
#X obj 140 20 inlet;
#X obj 190 20 inlet;
#X obj 251 346 outlet~;
#X obj 196 106 metro;
#X obj 246 106 random-maxmin;
#X obj 269 166 random-maxmin;
#X msg 313 136 100;
#X msg 357 136 0;
#X obj 269 256 pack;
#X obj 269 196 / 100;
#X obj 246 136 t f b f;
#X obj 269 226 *;
#X msg 222 80 stop;
#X obj 190 50 t b b;
#X obj 140 50 t b f;
#X obj 219 286 osc~;
#X obj 90 256 inlet;
#X text 88 235 freq;
#X obj 359 214 random-maxmin;
#X msg 312 256 0 \$1;
#X obj 290 76 r oscs-max;
#X obj 375 76 r oscs-min;
#X floatatom 438 55 5 0 0 0 - - - 0;
#X floatatom 277 55 5 0 0 0 - - - 0;
#X obj 352 106 loadbang;
#X text 41 18 amp de 0 a 1;
#X text 232 18 any to stop;
#X connect 0 0 4 0;
#X connect 1 0 0 1;
#X connect 2 0 16 0;
#X connect 3 0 15 0;
#X connect 5 0 6 0;
#X connect 6 0 12 0;
#X connect 7 0 11 0;
#X connect 8 0 7 1;
#X connect 9 0 7 2;
#X connect 10 0 1 0;
#X connect 11 0 13 0;
#X connect 12 0 5 1;
#X connect 12 1 7 0;
#X connect 12 2 10 1;
#X connect 13 0 10 0;
#X connect 14 0 5 0;
#X connect 15 0 20 0;
#X connect 15 1 14 0;
#X connect 16 0 5 0;
#X connect 16 1 13 1;
#X connect 17 0 0 0;
#X connect 18 0 17 0;
#X connect 20 0 21 0;
#X connect 21 0 1 0;
#X connect 22 0 20 1;
#X connect 22 0 6 1;
#X connect 22 0 25 0;
#X connect 23 0 20 2;
#X connect 23 0 6 2;
#X connect 23 0 24 0;
#X connect 26 0 8 0;
#X connect 26 0 9 0;
