#N canvas 407 371 687 288 12;
#X obj 150 28 inlet;
#X obj 200 88 random-maxmin;
#X obj 175 138 pack;
#X obj 150 58 t f b;
#X obj 157 198 *~;
#X obj 175 168 vline~;
#X obj 157 228 outlet~;
#X obj 125 168 osc~;
#X obj 96 137 inlet;
#X text 97 116 freq;
#X obj 218 138 pack;
#X msg 218 118 0;
#X obj 200 28 inlet;
#X obj 200 58 t b b;
#X obj 250 58 r oscs-max;
#X obj 335 58 r oscs-min;
#X text 98 7 amp de 0 a 1;
#X text 202 7 any to stop;
#X connect 0 0 3 0;
#X connect 1 0 2 1;
#X connect 1 0 10 1;
#X connect 2 0 5 0;
#X connect 3 0 2 0;
#X connect 3 1 1 0;
#X connect 4 0 6 0;
#X connect 5 0 4 1;
#X connect 7 0 4 0;
#X connect 8 0 7 0;
#X connect 10 0 5 0;
#X connect 11 0 10 0;
#X connect 12 0 13 0;
#X connect 13 0 11 0;
#X connect 13 1 1 0;
#X connect 14 0 1 1;
#X connect 15 0 1 2;
